<?xml version="1.0" encoding="utf-8"?>
<!-- Generator: Adobe Illustrator 16.0.4, SVG Export Plug-In . SVG Version: 6.00 Build 0)  -->
<!DOCTYPE svg PUBLIC "-//W3C//DTD SVG 1.1//EN" "http://www.w3.org/Graphics/SVG/1.1/DTD/svg11.dtd">
<svg version="1.1" id="Ebene_1" xmlns="http://www.w3.org/2000/svg" xmlns:xlink="http://www.w3.org/1999/xlink" x="0px" y="0px"
	 width="283.46px" height="141.73px" viewBox="0 0 283.46 141.73" enable-background="new 0 0 283.46 141.73" xml:space="preserve">
<path fill="#777777" d="M41.358,46.73v9.699h3.484c4.167,0,5.601-1.981,5.601-5.191c0-3.416-1.845-4.508-5.669-4.508H41.358z
	 M51.946,84.299L46.961,70.98c-1.844-4.918-2.938-5.534-5.603-5.534v18.852H29.132v-47.61h16.394
	c14.003,0,18.511,5.67,18.511,13.594c0,8.197-4.303,12.364-9.904,13.32c1.639,0.478,3.621,2.663,4.782,5.123
	c1.57,3.21,5.601,12.022,7.173,15.573H51.946z"/>
<polygon fill="#777777" points="71.127,84.299 71.127,36.689 97.903,36.689 97.905,46.73 83.355,46.73 83.355,54.722 95.241,54.722 
	95.241,64.421 83.355,64.421 83.355,74.12 99.681,74.12 99.681,84.299 "/>
<path fill="#777777" d="M161.365,36.689h-13.047l-2.391,11.817c-0.956,4.645-2.392,13.866-2.665,18.102h-0.066
	c-0.274-5.807-1.229-10.383-1.914-14.003l-3.073-15.916h-13.593l-2.458,13.183c-1.298,7.036-2.118,12.978-2.393,16.804h-0.066
	c-0.069-1.776-0.479-6.421-2.733-17.146l-2.664-12.842h-12.91l11.543,47.61h13.32l2.528-13.798
	c1.162-6.216,2.186-12.567,2.322-14.958h0.069c0.205,3.006,1.297,9.221,2.322,14.958l2.459,13.798h13.047L161.365,36.689z"/>
<polygon fill="#777777" points="193.335,84.299 193.335,74.12 177.013,74.12 177.013,64.421 188.896,64.421 188.896,54.722 
	177.013,54.722 177.013,46.73 191.56,46.73 191.56,36.689 164.782,36.689 164.782,84.299 "/>
<path fill="#777777" d="M191.418,93.88c-0.82-0.869-1.972-1.314-3.353-1.314c-1.494,0-2.612,0.344-3.959,1.462
	c-1.479,1.233-2.661,3.711-2.661,6.325c0,2.368,1.415,3.941,4.076,3.941c1.347,0,2.693-0.263,3.992-0.95l1.181-5.521h-4.469v1.872
	h1.694l-0.561,2.597c-0.41,0.198-0.837,0.279-1.347,0.279c-1.314,0-2.054-0.625-2.054-2.119c0-1.382,0.641-4.389,1.955-5.422
	c0.461-0.378,1.116-0.608,1.791-0.608c0.87,0,1.61,0.247,2.232,0.854L191.418,93.88z"/>
<path fill="#777777" d="M200.574,97.676h0.708c0.984,0,1.428-0.115,1.808-0.395c0.441-0.362,0.738-1.067,0.738-1.577
	c0-0.789-0.51-1.116-1.462-1.116h-1.135L200.574,97.676z M203.565,92.748c1.725,0,2.728,0.968,2.728,2.495
	c0,2.252-1.545,3.696-3.286,3.991c0.196,0.134,0.378,0.396,0.491,0.574c0.542,0.955,1.711,4.355,1.711,4.355h-2.712l-0.592-1.855
	c-0.706-2.087-1.036-2.661-1.412-2.844c-0.099-0.048-0.198-0.064-0.278-0.064l-1.02,4.764h-2.317l2.431-11.416H203.565z"/>
<path fill="#777777" d="M215.951,95.376c-0.906,1.182-1.513,3.694-1.513,5.222c0,1.464,0.622,1.989,1.773,1.989
	c0.659,0,1.332-0.214,1.858-0.853c0.984-1.218,1.577-3.928,1.577-5.505c0-1.116-0.461-1.856-1.711-1.856
	C217.164,94.373,216.41,94.766,215.951,95.376 M222.226,96.707c0,2.875-1.462,5.995-3.779,7.098
	c-0.757,0.359-1.626,0.542-2.58,0.542c-2.823,0-3.907-1.711-3.907-4.093c0-3.235,1.56-5.553,3.037-6.621
	c0.676-0.493,1.609-1.035,3.353-1.035C220.86,92.598,222.226,94.159,222.226,96.707"/>
<path fill="#777777" d="M232.198,92.748l-1.593,7.506c-0.148,0.659-0.164,1.132-0.1,1.365c0.149,0.507,0.642,0.786,1.397,0.786
	c1.052,0,1.757-0.574,2.021-1.379c0.082-0.23,0.115-0.36,0.246-0.971l1.562-7.308h2.333l-1.644,7.688
	c-0.312,1.46-0.576,2.232-1.462,2.908c-0.445,0.327-1.299,1.035-3.434,1.035c-2.219,0-3.498-0.986-3.498-2.467
	c0-0.376,0.048-0.821,0.129-1.214l1.692-7.95H232.198z"/>
<path fill="#777777" d="M246.61,98.086h1.15c0.888,0,1.381-0.196,1.677-0.558c0.344-0.413,0.59-1.068,0.59-1.728
	c0-0.754-0.41-1.199-1.266-1.199h-1.411L246.61,98.086z M248.402,92.748c1.545,0,2.397,0.161,2.956,0.525
	c0.724,0.442,1.15,1.199,1.15,2.085c0,1.972-0.937,3.417-2.645,4.206c-0.576,0.263-1.545,0.395-2.449,0.395H246.2l-0.888,4.205
	h-2.35l2.432-11.416H248.402z"/>
<rect x="202.726" y="64.448" fill="#CC071E" width="19.84" height="19.839"/>
<rect x="232.468" y="64.448" fill="#ECCD23" width="19.841" height="19.839"/>
</svg>
